<?xml version="1.0" encoding="utf-8"?>
<!-- Generator: Adobe Illustrator 16.0.0, SVG Export Plug-In . SVG Version: 6.00 Build 0)  -->
<!DOCTYPE svg PUBLIC "-//W3C//DTD SVG 1.1//EN" "http://www.w3.org/Graphics/SVG/1.1/DTD/svg11.dtd">
<svg version="1.1" id="Layer_1" xmlns="http://www.w3.org/2000/svg" xmlns:xlink="http://www.w3.org/1999/xlink" x="0px" y="0px"
	 width="327.667px" height="60px" viewBox="19.569 11.745 327.667 60" enable-background="new 19.569 11.745 327.667 60"
	 xml:space="preserve">
<path d="M136.126,68.417c-1.641,0.339-2.983,0.42-4.302,0.017c-0.556-0.882-0.341-1.8-0.342-2.67
	c-0.016-10.23-0.008-20.462-0.014-30.693c-0.001-1.38,0.004-2.763-0.084-4.14c-0.131-2.042-0.622-4.021-1.579-5.828
	c-1.761-3.328-4.708-5.043-8.289-5.793c-5.508-1.153-11.014-0.848-16.396,0.559c-6.717,1.754-12.943,4.646-18.54,8.847
	c-1.435,1.076-2.065,2.187-2.049,4.034c0.091,10.88,0.048,21.762,0.038,32.643c-0.001,0.958,0.126,1.938-0.263,2.983
	c-1.411,0.543-2.813,0.271-4.296,0.17c-0.095-0.563-0.203-0.948-0.221-1.337c-0.247-5.531-0.071-49.445,0.219-51.515
	c1.352-0.453,2.757-0.321,4.284-0.09c0.673,2.815-0.056,5.675,0.436,8.354c0.613,0.462,1.024,0.121,1.434-0.113
	c1.759-1.01,3.501-2.049,5.269-3.042c4.264-2.397,8.734-4.309,13.51-5.408c4.438-1.022,8.9-1.629,13.5-1.052
	c2.926,0.367,5.766,0.86,8.43,2.151c4.138,2.003,7.021,5.072,8.454,9.525c0.813,2.528,0.931,5.101,0.939,7.687
	c0.041,10.8,0.021,21.601,0.012,32.398C136.276,66.82,136.187,67.533,136.126,68.417z"/>
<path d="M154.922,44.402c-0.037,0.996-0.098,1.874-0.1,2.751c-0.008,6.173,0,12.345-0.009,18.517
	c-0.001,0.876-0.062,1.752-0.098,2.695c-1.483,0.512-2.813,0.296-4.25,0.184c-0.121-0.576-0.255-1.028-0.302-1.492
	c-0.052-0.481-0.023-0.974-0.023-1.46c0-15.757-0.002-31.511,0.007-47.266c0-0.873-0.141-1.777,0.336-2.726
	c1.331-0.301,2.661-0.243,4.052-0.036c0.392,0.947,0.275,1.845,0.277,2.718c0.01,6.253-0.004,12.506,0.018,18.76
	c0.002,0.871-0.207,1.786,0.341,2.694c0.437,0.051,0.908,0.155,1.38,0.155c2.923-0.006,5.86,0.139,8.767-0.089
	c8.347-0.653,16.083-3.129,22.613-8.546c4.487-3.724,7.609-8.39,8.66-14.262c0.083-0.462,0.309-0.896,0.484-1.392
	c1.495-0.248,2.91-0.346,4.333,0.079c0.322,1.491-0.108,2.829-0.475,4.139c-1.771,6.353-5.533,11.293-10.844,15.121
	c-3.39,2.442-7.125,4.19-11.032,5.61c-0.67,0.244-1.332,0.515-2.143,0.829c0.698,0.83,1.555,0.78,2.284,0.971
	c3.858,1.011,7.594,2.325,11.098,4.271c4.262,2.369,7.873,5.459,10.516,9.564c2.221,3.451,3.681,7.221,4.044,11.354
	c0.021,0.234-0.042,0.479-0.074,0.806c-1.482,0.536-2.966,0.403-4.511,0.101c-0.147-0.631-0.305-1.169-0.397-1.718
	c-1.179-6.93-5.131-11.965-10.855-15.731c-4.748-3.125-10.058-4.833-15.603-5.887c-5.781-1.097-11.624-1.071-17.472-0.962
	C155.71,44.16,155.477,44.265,154.922,44.402z"/>
<path d="M22.437,15.63c1.362-0.36,2.71-0.236,4.216-0.062c0.093,0.541,0.256,1.073,0.261,1.605c0.024,3.167,0.015,6.333,0.015,9.5
	c0,7.878,0,15.755,0.001,23.632c0,0.729-0.017,1.463,0.018,2.19c0.142,2.986,1.313,5.526,3.542,7.49
	c1.086,0.955,2.309,1.821,3.601,2.458c3.451,1.7,7.131,2.616,10.986,2.858c2.759,0.174,5.516,0.21,8.264-0.033
	c4.997-0.441,9.763-1.629,13.772-4.859c2.384-1.92,3.789-4.405,3.931-7.519c0.043-0.975,0.065-1.948,0.065-2.922
	c0.004-10.476-0.002-20.95,0.013-31.427c0.001-0.957-0.197-1.953,0.349-2.916c1.407-0.394,2.822-0.206,4.356-0.084
	c0.079,0.813,0.195,1.443,0.196,2.075c0.012,10.962,0.037,21.925-0.02,32.887c-0.01,1.931-0.204,3.87-0.687,5.775
	c-0.995,3.932-3.458,6.695-6.742,8.873c-2.962,1.963-6.24,3.104-9.694,3.746c-4.244,0.789-8.529,0.974-12.844,0.746
	c-3.498-0.185-6.932-0.629-10.295-1.638c-2.279-0.684-4.428-1.681-6.381-2.965c-4.313-2.836-6.826-6.841-7.111-12.097
	c-0.048-0.892-0.078-1.784-0.078-2.677c-0.005-10.639-0.007-21.276,0.003-31.914C22.174,17.485,22.041,16.583,22.437,15.63z"/>
<path d="M295.142,15.51c1.376,0,2.659,0,4.082,0c0.102,0.577,0.271,1.109,0.276,1.646c0.032,2.271,0.008,4.543,0.021,6.816
	c0.002,0.539,0.07,1.077,0.104,1.538c0.648,0.292,0.916-0.089,1.182-0.357c1.831-1.854,3.861-3.463,6.033-4.895
	c6.847-4.509,14.341-6.681,22.562-6.197c0.323,0.019,0.649,0.039,0.97,0.09c1.113,0.177,2.228,0.368,3.435,0.57
	c0.596,1.406,0.384,2.812,0.187,4.399c-1.293-0.194-2.47-0.337-3.631-0.553c-3.322-0.62-6.644-0.418-9.922,0.182
	c-7.798,1.428-14.116,5.464-19.442,11.227c-1.058,1.144-1.521,2.325-1.512,3.906c0.062,10.549,0.035,21.097,0.025,31.646
	c-0.003,0.952,0.148,1.936-0.27,2.929c-1.386,0.376-2.725,0.229-4.146,0.096c-0.124-0.576-0.271-1.03-0.313-1.493
	c-0.053-0.563-0.021-1.137-0.021-1.704c0-15.578-0.004-31.157,0.008-46.736C294.773,17.66,294.601,16.672,295.142,15.51z"/>
<path d="M145.993,68.393c-1.665,0.38-3.01,0.385-4.306,0.081c-0.604-0.685-0.428-1.445-0.431-2.154
	c-0.019-4.218-0.009-8.438-0.009-12.655c0-11.682-0.004-23.363,0.007-35.046c0.001-0.956-0.153-1.938,0.264-2.949
	c1.354-0.421,2.704-0.251,4.172-0.11c0.133,0.452,0.321,0.89,0.377,1.344c0.069,0.56,0.034,1.134,0.034,1.702
	c0.001,15.657,0.002,31.313-0.004,46.972C146.097,66.456,146.034,67.335,145.993,68.393z"/>
<path d="M339.057,15.531c0.647-0.033,1.365-0.1,2.083-0.096c0.631,0.004,1.263,0.088,2.013,0.146
	c0.083,0.557,0.183,1.017,0.211,1.481c0.035,0.565,0.016,1.136,0.016,1.704c0,15.507,0.002,31.014-0.002,46.52
	c0,0.966-0.036,1.93-0.057,2.914c-1.497,0.832-2.917,0.338-4.188,0.382c-0.67-1.018-0.475-1.937-0.477-2.812
	c-0.018-5.926-0.009-11.854-0.009-17.779c0-9.824-0.007-19.647,0.011-29.471C338.66,17.566,338.445,16.567,339.057,15.531z"/>
<polygon fill="#CBA25B" points="223.77,15.469 207.733,31.505 227.561,51.333 247.096,23.923 265.758,52.5 285.586,31.796 
	269.548,15.469 "/>
<polygon fill="#CBA25B" points="246.805,49 238.932,61.248 246.513,69.412 254.386,60.663 "/>
<polyline fill="#46210E" points="247.096,30.921 221.728,68.828 229.892,69.121 247.388,42.294 264.592,69.121 272.172,69.121 "/>
</svg>
