<svg width="190" height="35" viewBox="0 0 190 35" fill="none" xmlns="http://www.w3.org/2000/svg">
<path d="M67.6291 32.6954C66.6823 32.891 65.9081 32.9377 65.1472 32.7052C64.8264 32.1963 64.9504 31.6667 64.9498 31.1648C64.9406 25.2629 64.9452 19.3598 64.9418 13.4573C64.9412 12.6612 64.9441 11.8633 64.8933 11.0688C64.8177 9.89077 64.5345 8.74904 63.9823 7.70654C62.9664 5.78654 61.2662 4.79712 59.2002 4.36442C56.0225 3.69923 52.846 3.87519 49.741 4.68692C45.8658 5.69885 42.2739 7.36731 39.0448 9.79096C38.217 10.4117 37.8535 11.0527 37.8627 12.1183C37.9152 18.3952 37.8904 24.6733 37.8847 30.9508C37.8841 31.5035 37.9573 32.0688 37.7329 32.6717C36.9189 32.985 36.11 32.8281 35.2545 32.7698C35.1997 32.445 35.1373 32.2229 35.127 31.9985C34.9845 28.8075 35.086 3.4725 35.2533 2.27827C36.0333 2.01692 36.8439 2.09308 37.7248 2.22635C38.1131 3.85039 37.6925 5.50039 37.9764 7.04596C38.33 7.3125 38.5672 7.11577 38.8037 6.98077C39.8185 6.39808 40.8235 5.79866 41.8435 5.22577C44.3035 3.84289 46.8823 2.73981 49.6377 2.10577C52.1981 1.51616 54.7723 1.16596 57.4262 1.49885C59.1143 1.71058 60.7527 1.995 62.2897 2.73981C64.677 3.89539 66.3402 5.66596 67.167 8.235C67.636 9.69346 67.7041 11.1779 67.7087 12.6698C67.7323 18.9006 67.7208 25.1319 67.7156 31.361C67.7156 31.774 67.6643 32.1854 67.6291 32.6954Z" fill="white"/>
<path d="M78.4729 18.8406C78.4516 19.4152 78.4164 19.9217 78.4153 20.4277C78.4106 23.989 78.4153 27.5498 78.4101 31.1106C78.4095 31.616 78.3743 32.1213 78.3535 32.6654C77.4979 32.9608 76.7306 32.8362 75.9016 32.7715C75.8318 32.4392 75.7545 32.1785 75.7274 31.9108C75.6974 31.6333 75.7141 31.3488 75.7141 31.0685C75.7141 21.9779 75.7129 12.889 75.7181 3.79961C75.7181 3.29596 75.6368 2.77442 75.912 2.22692C76.6799 2.05327 77.4472 2.08673 78.2497 2.20615C78.4758 2.7525 78.4083 3.27057 78.4095 3.77423C78.4153 7.38173 78.4072 10.9892 78.4199 14.5973C78.421 15.0998 78.3004 15.6277 78.6166 16.1515C78.8687 16.181 79.1404 16.241 79.4127 16.241C81.0991 16.2375 82.7935 16.3211 84.4706 16.1896C89.2862 15.8129 93.7493 14.3844 97.5166 11.2592C100.105 9.11077 101.906 6.41884 102.513 3.03115C102.561 2.76461 102.691 2.51423 102.792 2.22807C103.654 2.085 104.471 2.02846 105.292 2.27365C105.478 3.13384 105.229 3.90577 105.018 4.66154C103.996 8.32673 101.826 11.1767 98.7616 13.3852C96.8058 14.794 94.651 15.8025 92.397 16.6217C92.0104 16.7625 91.6285 16.9188 91.1606 17.1C91.5633 17.5788 92.0578 17.55 92.4783 17.6602C94.7041 18.2435 96.8595 19.0015 98.881 20.1242C101.34 21.491 103.423 23.2737 104.948 25.6419C106.229 27.6329 107.072 29.8079 107.281 32.1923C107.293 32.3273 107.257 32.4686 107.238 32.6573C106.383 32.9665 105.527 32.8898 104.636 32.7156C104.551 32.3515 104.46 32.0412 104.407 31.7244C103.727 27.7263 101.447 24.8215 98.1443 22.6488C95.4051 20.846 92.3416 19.8606 89.1426 19.2525C85.8074 18.6196 82.4364 18.6346 79.0626 18.6975C78.9276 18.701 78.7931 18.7615 78.4729 18.8406Z" fill="white"/>
<path d="M2.03924 2.24135C2.82501 2.03366 3.6027 2.10519 4.47155 2.20558C4.5252 2.51769 4.61924 2.82462 4.62213 3.13154C4.63597 4.95866 4.63078 6.78519 4.63078 8.61231C4.63078 13.1573 4.63078 17.7017 4.63136 22.2462C4.63136 22.6667 4.62155 23.0902 4.64174 23.5096C4.72366 25.2323 5.39924 26.6977 6.6852 27.8308C7.31174 28.3817 8.01732 28.8813 8.7627 29.2488C10.7537 30.2296 12.8767 30.7581 15.1008 30.8977C16.6925 30.9981 18.2831 31.0188 19.8685 30.8787C22.7514 30.6242 25.501 29.9388 27.8139 28.0754C29.1892 26.9677 29.9998 25.534 30.0817 23.7375C30.1065 23.175 30.1192 22.6137 30.1192 22.0517C30.1215 16.0079 30.1181 9.9652 30.1267 3.92077C30.1273 3.36866 30.0131 2.79404 30.3281 2.23846C31.1398 2.01116 31.9562 2.11962 32.8412 2.19C32.8867 2.65904 32.9537 3.0225 32.9542 3.38712C32.9612 9.71135 32.9756 16.0362 32.9427 22.3604C32.9369 23.4744 32.825 24.5931 32.5464 25.6921C31.9723 27.9606 30.5514 29.5546 28.6567 30.8112C26.9479 31.9437 25.0567 32.6019 23.064 32.9723C20.6156 33.4275 18.1435 33.5342 15.654 33.4027C13.636 33.296 11.6548 33.0398 9.71463 32.4577C8.39982 32.0631 7.16001 31.4879 6.03328 30.7471C3.54501 29.111 2.0952 26.8004 1.93078 23.7681C1.90309 23.2535 1.88578 22.7388 1.88578 22.2237C1.88289 16.0858 1.88174 9.94904 1.88751 3.81173C1.88751 3.31154 1.81078 2.79116 2.03924 2.24135Z" fill="white"/>
<path d="M159.369 2.17212C160.163 2.17212 160.903 2.17212 161.724 2.17212C161.783 2.505 161.88 2.81192 161.883 3.12173C161.902 4.43192 161.888 5.74269 161.895 7.05404C161.897 7.365 161.936 7.67539 161.955 7.94135C162.329 8.10981 162.484 7.89 162.637 7.73539C163.694 6.66577 164.865 5.7375 166.118 4.91135C170.068 2.31 174.392 1.05692 179.134 1.33615C179.321 1.34712 179.509 1.35865 179.694 1.38808C180.336 1.49019 180.979 1.60039 181.676 1.71692C182.02 2.52808 181.897 3.33923 181.784 4.25481C181.038 4.14289 180.359 4.06039 179.689 3.93577C177.772 3.57808 175.856 3.69462 173.965 4.04077C169.466 4.86462 165.821 7.19308 162.748 10.5179C162.138 11.1779 161.871 11.8592 161.876 12.7713C161.912 18.8573 161.896 24.9427 161.89 31.0287C161.888 31.5779 161.976 32.1456 161.734 32.7185C160.935 32.9354 160.162 32.8506 159.342 32.7738C159.271 32.4415 159.186 32.1796 159.162 31.9125C159.131 31.5877 159.15 31.2565 159.15 30.9294C159.15 21.9421 159.147 12.9542 159.154 3.96635C159.156 3.4125 159.057 2.8425 159.369 2.17212Z" fill="white"/>
<path d="M73.3216 32.6815C72.361 32.9008 71.5851 32.9037 70.8374 32.7283C70.4889 32.3331 70.5905 31.8946 70.5887 31.4856C70.5778 29.0521 70.5835 26.6175 70.5835 24.1846C70.5835 17.445 70.5812 10.706 70.5876 3.96577C70.5882 3.41423 70.4993 2.84769 70.7399 2.26442C71.5211 2.02154 72.2999 2.11961 73.1468 2.20096C73.2236 2.46173 73.332 2.71442 73.3643 2.97634C73.4041 3.29942 73.3839 3.63058 73.3839 3.95827C73.3845 12.9912 73.3851 22.0235 73.3816 31.0575C73.3816 31.564 73.3453 32.0712 73.3216 32.6815Z" fill="white"/>
<path d="M184.705 2.18423C185.078 2.16519 185.492 2.12654 185.906 2.12884C186.27 2.13115 186.635 2.17961 187.068 2.21308C187.116 2.53442 187.173 2.79981 187.189 3.0675C187.21 3.39346 187.199 3.72288 187.199 4.05058C187.199 12.9969 187.2 21.9433 187.198 30.889C187.198 31.4463 187.177 32.0025 187.165 32.5702C186.301 33.0502 185.482 32.7652 184.748 32.7906C184.362 32.2033 184.474 31.6731 184.473 31.1683C184.463 27.7494 184.468 24.3294 184.468 20.9112C184.468 15.2435 184.464 9.57635 184.474 3.90865C184.476 3.35827 184.352 2.78192 184.705 2.18423Z" fill="white"/>
<path d="M118.193 2.14846L108.941 11.4L120.38 22.8392L131.65 7.02577L142.417 23.5125L153.856 11.5679L144.603 2.14846H118.193Z" fill="#CBA25B"/>
<path d="M131.482 21.4933L126.94 28.5594L131.314 33.2694L135.856 28.2219L131.482 21.4933Z" fill="#CBA25B"/>
<path d="M131.65 11.0631L117.015 32.9325L121.725 33.1015L131.819 17.6244L141.744 33.1015H146.117" fill="white"/>
</svg>
